<svg xmlns="http://www.w3.org/2000/svg" xmlns:xlink="http://www.w3.org/1999/xlink" width="271" zoomAndPan="magnify" viewBox="0 0 203.25 88.499997" height="118" preserveAspectRatio="xMidYMid meet" version="1.0"><defs><g/></defs><g fill="#00a898" fill-opacity="1"><g transform="translate(13.000712, 58.544242)"><g><path d="M 15.90625 0.5 C 14.445312 0.5 12.988281 0.390625 11.53125 0.171875 C 10.070312 -0.046875 8.695312 -0.375 7.40625 -0.8125 C 6.113281 -1.257812 4.953125 -1.816406 3.921875 -2.484375 C 3.328125 -2.878906 2.914062 -3.359375 2.6875 -3.921875 C 2.457031 -4.484375 2.378906 -5.035156 2.453125 -5.578125 C 2.535156 -6.128906 2.75 -6.613281 3.09375 -7.03125 C 3.445312 -7.445312 3.890625 -7.703125 4.421875 -7.796875 C 4.953125 -7.898438 5.535156 -7.753906 6.171875 -7.359375 C 7.628906 -6.492188 9.164062 -5.863281 10.78125 -5.46875 C 12.40625 -5.070312 14.113281 -4.875 15.90625 -4.875 C 18.53125 -4.875 20.4375 -5.3125 21.625 -6.1875 C 22.820312 -7.0625 23.421875 -8.195312 23.421875 -9.59375 C 23.421875 -10.75 22.992188 -11.660156 22.140625 -12.328125 C 21.296875 -12.992188 19.847656 -13.539062 17.796875 -13.96875 L 12.328125 -15.109375 C 9.179688 -15.773438 6.835938 -16.894531 5.296875 -18.46875 C 3.753906 -20.039062 2.984375 -22.117188 2.984375 -24.703125 C 2.984375 -26.328125 3.3125 -27.800781 3.96875 -29.125 C 4.632812 -30.457031 5.570312 -31.601562 6.78125 -32.5625 C 7.988281 -33.519531 9.429688 -34.253906 11.109375 -34.765625 C 12.785156 -35.285156 14.632812 -35.546875 16.65625 -35.546875 C 18.644531 -35.546875 20.535156 -35.296875 22.328125 -34.796875 C 24.117188 -34.304688 25.722656 -33.578125 27.140625 -32.609375 C 27.671875 -32.242188 28.023438 -31.796875 28.203125 -31.265625 C 28.390625 -30.742188 28.429688 -30.222656 28.328125 -29.703125 C 28.234375 -29.191406 28.003906 -28.753906 27.640625 -28.390625 C 27.273438 -28.023438 26.816406 -27.804688 26.265625 -27.734375 C 25.722656 -27.671875 25.101562 -27.835938 24.40625 -28.234375 C 23.1875 -28.929688 21.945312 -29.425781 20.6875 -29.71875 C 19.425781 -30.019531 18.066406 -30.171875 16.609375 -30.171875 C 15.078125 -30.171875 13.765625 -29.957031 12.671875 -29.53125 C 11.578125 -29.101562 10.738281 -28.5 10.15625 -27.71875 C 9.582031 -26.9375 9.296875 -26.015625 9.296875 -24.953125 C 9.296875 -23.765625 9.691406 -22.8125 10.484375 -22.09375 C 11.285156 -21.382812 12.644531 -20.832031 14.5625 -20.4375 L 19.984375 -19.296875 C 23.265625 -18.597656 25.707031 -17.5 27.3125 -16 C 28.925781 -14.507812 29.734375 -12.523438 29.734375 -10.046875 C 29.734375 -8.453125 29.410156 -7.007812 28.765625 -5.71875 C 28.117188 -4.425781 27.1875 -3.316406 25.96875 -2.390625 C 24.757812 -1.460938 23.3125 -0.75 21.625 -0.25 C 19.9375 0.25 18.03125 0.5 15.90625 0.5 Z M 15.90625 0.5 "/></g></g></g><g fill="#00a898" fill-opacity="1"><g transform="translate(43.622896, 58.544242)"><g><path d="M 15.46875 0.390625 C 14.4375 0.390625 13.644531 0.101562 13.09375 -0.46875 C 12.550781 -1.050781 12.28125 -1.859375 12.28125 -2.890625 L 12.28125 -29.734375 L 2.578125 -29.734375 C 1.722656 -29.734375 1.050781 -29.972656 0.5625 -30.453125 C 0.0820312 -30.929688 -0.15625 -31.585938 -0.15625 -32.421875 C -0.15625 -33.273438 0.0820312 -33.925781 0.5625 -34.375 C 1.050781 -34.820312 1.722656 -35.046875 2.578125 -35.046875 L 28.34375 -35.046875 C 29.195312 -35.046875 29.863281 -34.820312 30.34375 -34.375 C 30.832031 -33.925781 31.078125 -33.273438 31.078125 -32.421875 C 31.078125 -31.585938 30.832031 -30.929688 30.34375 -30.453125 C 29.863281 -29.972656 29.195312 -29.734375 28.34375 -29.734375 L 18.640625 -29.734375 L 18.640625 -2.890625 C 18.640625 -1.859375 18.375 -1.050781 17.84375 -0.46875 C 17.3125 0.101562 16.519531 0.390625 15.46875 0.390625 Z M 15.46875 0.390625 "/></g></g></g><g fill="#00a898" fill-opacity="1"><g transform="translate(70.615982, 58.544242)"><g><path d="M 4.171875 0.390625 C 3.378906 0.390625 2.742188 0.207031 2.265625 -0.15625 C 1.785156 -0.519531 1.492188 -1.003906 1.390625 -1.609375 C 1.296875 -2.222656 1.410156 -2.910156 1.734375 -3.671875 L 14.859375 -32.765625 C 15.296875 -33.722656 15.820312 -34.410156 16.4375 -34.828125 C 17.050781 -35.242188 17.753906 -35.453125 18.546875 -35.453125 C 19.304688 -35.453125 19.992188 -35.242188 20.609375 -34.828125 C 21.222656 -34.410156 21.742188 -33.722656 22.171875 -32.765625 L 35.34375 -3.671875 C 35.707031 -2.910156 35.835938 -2.210938 35.734375 -1.578125 C 35.640625 -0.953125 35.359375 -0.46875 34.890625 -0.125 C 34.429688 0.21875 33.820312 0.390625 33.0625 0.390625 C 32.132812 0.390625 31.410156 0.171875 30.890625 -0.265625 C 30.378906 -0.710938 29.925781 -1.40625 29.53125 -2.34375 L 26.296875 -9.84375 L 28.984375 -8.109375 L 8 -8.109375 L 10.6875 -9.84375 L 7.5 -2.34375 C 7.070312 -1.375 6.625 -0.675781 6.15625 -0.25 C 5.695312 0.175781 5.035156 0.390625 4.171875 0.390625 Z M 18.453125 -28.140625 L 11.484375 -11.578125 L 10.1875 -13.171875 L 26.796875 -13.171875 L 25.5625 -11.578125 L 18.546875 -28.140625 Z M 18.453125 -28.140625 "/></g></g></g><g fill="#00a898" fill-opacity="1"><g transform="translate(107.601271, 58.544242)"><g><path d="M 7.015625 0.390625 C 5.984375 0.390625 5.191406 0.101562 4.640625 -0.46875 C 4.097656 -1.050781 3.828125 -1.859375 3.828125 -2.890625 L 3.828125 -31.8125 C 3.828125 -32.875 4.109375 -33.675781 4.671875 -34.21875 C 5.234375 -34.769531 6.03125 -35.046875 7.0625 -35.046875 L 19.046875 -35.046875 C 22.890625 -35.046875 25.851562 -34.125 27.9375 -32.28125 C 30.03125 -30.445312 31.078125 -27.875 31.078125 -24.5625 C 31.078125 -22.40625 30.601562 -20.546875 29.65625 -18.984375 C 28.707031 -17.429688 27.335938 -16.238281 25.546875 -15.40625 C 23.765625 -14.582031 21.597656 -14.171875 19.046875 -14.171875 L 19.484375 -14.921875 L 21.125 -14.921875 C 22.488281 -14.921875 23.675781 -14.585938 24.6875 -13.921875 C 25.695312 -13.253906 26.582031 -12.207031 27.34375 -10.78125 L 31.078125 -3.875 C 31.472656 -3.175781 31.65625 -2.492188 31.625 -1.828125 C 31.59375 -1.171875 31.34375 -0.632812 30.875 -0.21875 C 30.40625 0.1875 29.726562 0.390625 28.84375 0.390625 C 27.945312 0.390625 27.210938 0.203125 26.640625 -0.171875 C 26.078125 -0.554688 25.582031 -1.144531 25.15625 -1.9375 L 20.140625 -11.1875 C 19.535156 -12.3125 18.828125 -13.0625 18.015625 -13.4375 C 17.210938 -13.820312 16.179688 -14.015625 14.921875 -14.015625 L 10.1875 -14.015625 L 10.1875 -2.890625 C 10.1875 -1.859375 9.921875 -1.050781 9.390625 -0.46875 C 8.859375 0.101562 8.066406 0.390625 7.015625 0.390625 Z M 10.1875 -18.75 L 17.953125 -18.75 C 20.234375 -18.75 21.960938 -19.21875 23.140625 -20.15625 C 24.316406 -21.101562 24.90625 -22.519531 24.90625 -24.40625 C 24.90625 -26.269531 24.316406 -27.671875 23.140625 -28.609375 C 21.960938 -29.554688 20.234375 -30.03125 17.953125 -30.03125 L 10.1875 -30.03125 Z M 10.1875 -18.75 "/></g></g></g><g fill="#00a898" fill-opacity="1"><g transform="translate(141.454726, 58.544242)"><g><path d="M 20.140625 0.5 C 16.492188 0.5 13.367188 -0.234375 10.765625 -1.703125 C 8.160156 -3.179688 6.160156 -5.269531 4.765625 -7.96875 C 3.378906 -10.675781 2.6875 -13.867188 2.6875 -17.546875 C 2.6875 -20.296875 3.082031 -22.773438 3.875 -24.984375 C 4.675781 -27.191406 5.820312 -29.082031 7.3125 -30.65625 C 8.800781 -32.226562 10.628906 -33.4375 12.796875 -34.28125 C 14.972656 -35.125 17.421875 -35.546875 20.140625 -35.546875 C 21.960938 -35.546875 23.75 -35.3125 25.5 -34.84375 C 27.257812 -34.382812 28.800781 -33.722656 30.125 -32.859375 C 30.820312 -32.429688 31.285156 -31.910156 31.515625 -31.296875 C 31.753906 -30.679688 31.804688 -30.082031 31.671875 -29.5 C 31.535156 -28.925781 31.257812 -28.4375 30.84375 -28.03125 C 30.4375 -27.632812 29.925781 -27.410156 29.3125 -27.359375 C 28.695312 -27.316406 28.023438 -27.523438 27.296875 -27.984375 C 26.265625 -28.648438 25.148438 -29.128906 23.953125 -29.421875 C 22.765625 -29.722656 21.554688 -29.875 20.328125 -29.875 C 17.984375 -29.875 16 -29.394531 14.375 -28.4375 C 12.75 -27.476562 11.519531 -26.085938 10.6875 -24.265625 C 9.863281 -22.441406 9.453125 -20.203125 9.453125 -17.546875 C 9.453125 -14.929688 9.863281 -12.691406 10.6875 -10.828125 C 11.519531 -8.972656 12.75 -7.566406 14.375 -6.609375 C 16 -5.648438 17.984375 -5.171875 20.328125 -5.171875 C 21.585938 -5.171875 22.832031 -5.328125 24.0625 -5.640625 C 25.289062 -5.953125 26.453125 -6.441406 27.546875 -7.109375 C 28.273438 -7.535156 28.925781 -7.722656 29.5 -7.671875 C 30.082031 -7.628906 30.570312 -7.425781 30.96875 -7.0625 C 31.375 -6.695312 31.640625 -6.238281 31.765625 -5.6875 C 31.898438 -5.144531 31.867188 -4.582031 31.671875 -4 C 31.472656 -3.414062 31.078125 -2.910156 30.484375 -2.484375 C 29.148438 -1.523438 27.5625 -0.785156 25.71875 -0.265625 C 23.882812 0.242188 22.023438 0.5 20.140625 0.5 Z M 20.140625 0.5 "/></g></g></g><g fill="#00a898" fill-opacity="1"><g transform="translate(175.258484, 58.544242)"><g><path d="M 7.015625 0.390625 C 5.984375 0.390625 5.191406 0.101562 4.640625 -0.46875 C 4.097656 -1.050781 3.828125 -1.859375 3.828125 -2.890625 L 3.828125 -32.171875 C 3.828125 -33.234375 4.097656 -34.046875 4.640625 -34.609375 C 5.191406 -35.171875 5.984375 -35.453125 7.015625 -35.453125 C 8.035156 -35.453125 8.816406 -35.171875 9.359375 -34.609375 C 9.910156 -34.046875 10.1875 -33.234375 10.1875 -32.171875 L 10.1875 -2.890625 C 10.1875 -1.859375 9.921875 -1.050781 9.390625 -0.46875 C 8.859375 0.101562 8.066406 0.390625 7.015625 0.390625 Z M 7.015625 0.390625 "/></g></g></g><g fill="#6c8aa3" fill-opacity="1"><g transform="translate(63.987499, 78.276597)"><g><path d="M 1.25 0.125 C 1.007812 0.125 0.816406 0.0703125 0.671875 -0.03125 C 0.535156 -0.144531 0.453125 -0.296875 0.421875 -0.484375 C 0.390625 -0.671875 0.421875 -0.878906 0.515625 -1.109375 L 4.46875 -9.828125 C 4.59375 -10.117188 4.742188 -10.328125 4.921875 -10.453125 C 5.109375 -10.578125 5.320312 -10.640625 5.5625 -10.640625 C 5.789062 -10.640625 6 -10.578125 6.1875 -10.453125 C 6.375 -10.328125 6.53125 -10.117188 6.65625 -9.828125 L 10.609375 -1.109375 C 10.722656 -0.878906 10.765625 -0.664062 10.734375 -0.46875 C 10.703125 -0.28125 10.613281 -0.132812 10.46875 -0.03125 C 10.332031 0.0703125 10.148438 0.125 9.921875 0.125 C 9.640625 0.125 9.421875 0.0546875 9.265625 -0.078125 C 9.117188 -0.210938 8.984375 -0.421875 8.859375 -0.703125 L 7.890625 -2.953125 L 8.703125 -2.4375 L 2.40625 -2.4375 L 3.203125 -2.953125 L 2.25 -0.703125 C 2.125 -0.410156 1.988281 -0.195312 1.84375 -0.0625 C 1.707031 0.0625 1.507812 0.125 1.25 0.125 Z M 5.53125 -8.453125 L 3.453125 -3.484375 L 3.0625 -3.953125 L 8.046875 -3.953125 L 7.671875 -3.484375 L 5.5625 -8.453125 Z M 5.53125 -8.453125 "/></g></g></g><g fill="#6c8aa3" fill-opacity="1"><g transform="translate(74.861056, 78.276597)"><g><path d="M 6.046875 0.15625 C 4.953125 0.15625 4.015625 -0.0625 3.234375 -0.5 C 2.453125 -0.945312 1.851562 -1.578125 1.4375 -2.390625 C 1.019531 -3.203125 0.8125 -4.160156 0.8125 -5.265625 C 0.8125 -6.085938 0.925781 -6.828125 1.15625 -7.484375 C 1.394531 -8.148438 1.738281 -8.71875 2.1875 -9.1875 C 2.632812 -9.664062 3.179688 -10.03125 3.828125 -10.28125 C 4.484375 -10.539062 5.222656 -10.671875 6.046875 -10.671875 C 6.585938 -10.671875 7.125 -10.597656 7.65625 -10.453125 C 8.1875 -10.316406 8.648438 -10.117188 9.046875 -9.859375 C 9.253906 -9.734375 9.390625 -9.578125 9.453125 -9.390625 C 9.523438 -9.210938 9.539062 -9.035156 9.5 -8.859375 C 9.46875 -8.679688 9.390625 -8.53125 9.265625 -8.40625 C 9.140625 -8.289062 8.984375 -8.222656 8.796875 -8.203125 C 8.609375 -8.191406 8.40625 -8.257812 8.1875 -8.40625 C 7.882812 -8.601562 7.550781 -8.742188 7.1875 -8.828125 C 6.832031 -8.921875 6.472656 -8.96875 6.109375 -8.96875 C 5.398438 -8.96875 4.800781 -8.820312 4.3125 -8.53125 C 3.820312 -8.25 3.453125 -7.832031 3.203125 -7.28125 C 2.953125 -6.738281 2.828125 -6.066406 2.828125 -5.265625 C 2.828125 -4.484375 2.953125 -3.8125 3.203125 -3.25 C 3.453125 -2.695312 3.820312 -2.273438 4.3125 -1.984375 C 4.800781 -1.691406 5.398438 -1.546875 6.109375 -1.546875 C 6.484375 -1.546875 6.851562 -1.59375 7.21875 -1.6875 C 7.59375 -1.78125 7.941406 -1.929688 8.265625 -2.140625 C 8.484375 -2.265625 8.679688 -2.316406 8.859375 -2.296875 C 9.035156 -2.285156 9.179688 -2.222656 9.296875 -2.109375 C 9.410156 -2.003906 9.488281 -1.867188 9.53125 -1.703125 C 9.570312 -1.546875 9.5625 -1.378906 9.5 -1.203125 C 9.445312 -1.023438 9.328125 -0.875 9.140625 -0.75 C 8.742188 -0.457031 8.269531 -0.234375 7.71875 -0.078125 C 7.164062 0.078125 6.609375 0.15625 6.046875 0.15625 Z M 6.046875 0.15625 "/></g></g></g><g fill="#6c8aa3" fill-opacity="1"><g transform="translate(84.780006, 78.276597)"><g><path d="M 1.25 0.125 C 1.007812 0.125 0.816406 0.0703125 0.671875 -0.03125 C 0.535156 -0.144531 0.453125 -0.296875 0.421875 -0.484375 C 0.390625 -0.671875 0.421875 -0.878906 0.515625 -1.109375 L 4.46875 -9.828125 C 4.59375 -10.117188 4.742188 -10.328125 4.921875 -10.453125 C 5.109375 -10.578125 5.320312 -10.640625 5.5625 -10.640625 C 5.789062 -10.640625 6 -10.578125 6.1875 -10.453125 C 6.375 -10.328125 6.53125 -10.117188 6.65625 -9.828125 L 10.609375 -1.109375 C 10.722656 -0.878906 10.765625 -0.664062 10.734375 -0.46875 C 10.703125 -0.28125 10.613281 -0.132812 10.46875 -0.03125 C 10.332031 0.0703125 10.148438 0.125 9.921875 0.125 C 9.640625 0.125 9.421875 0.0546875 9.265625 -0.078125 C 9.117188 -0.210938 8.984375 -0.421875 8.859375 -0.703125 L 7.890625 -2.953125 L 8.703125 -2.4375 L 2.40625 -2.4375 L 3.203125 -2.953125 L 2.25 -0.703125 C 2.125 -0.410156 1.988281 -0.195312 1.84375 -0.0625 C 1.707031 0.0625 1.507812 0.125 1.25 0.125 Z M 5.53125 -8.453125 L 3.453125 -3.484375 L 3.0625 -3.953125 L 8.046875 -3.953125 L 7.671875 -3.484375 L 5.5625 -8.453125 Z M 5.53125 -8.453125 "/></g></g></g><g fill="#6c8aa3" fill-opacity="1"><g transform="translate(95.877301, 78.276597)"><g><path d="M 2.15625 0 C 1.832031 0 1.582031 -0.0820312 1.40625 -0.25 C 1.238281 -0.425781 1.15625 -0.679688 1.15625 -1.015625 L 1.15625 -9.5 C 1.15625 -9.832031 1.238281 -10.082031 1.40625 -10.25 C 1.582031 -10.425781 1.832031 -10.515625 2.15625 -10.515625 L 5.0625 -10.515625 C 6.820312 -10.515625 8.179688 -10.0625 9.140625 -9.15625 C 10.097656 -8.25 10.578125 -6.953125 10.578125 -5.265625 C 10.578125 -4.421875 10.453125 -3.671875 10.203125 -3.015625 C 9.960938 -2.367188 9.609375 -1.820312 9.140625 -1.375 C 8.671875 -0.925781 8.09375 -0.582031 7.40625 -0.34375 C 6.726562 -0.113281 5.945312 0 5.0625 0 Z M 3.0625 -1.578125 L 4.9375 -1.578125 C 5.550781 -1.578125 6.082031 -1.65625 6.53125 -1.8125 C 6.988281 -1.96875 7.367188 -2.195312 7.671875 -2.5 C 7.972656 -2.800781 8.195312 -3.179688 8.34375 -3.640625 C 8.5 -4.109375 8.578125 -4.648438 8.578125 -5.265625 C 8.578125 -6.503906 8.273438 -7.425781 7.671875 -8.03125 C 7.066406 -8.632812 6.15625 -8.9375 4.9375 -8.9375 L 3.0625 -8.9375 Z M 3.0625 -1.578125 "/></g></g></g><g fill="#6c8aa3" fill-opacity="1"><g transform="translate(107.24308, 78.276597)"><g><path d="M 2.15625 0 C 1.832031 0 1.582031 -0.0820312 1.40625 -0.25 C 1.238281 -0.425781 1.15625 -0.679688 1.15625 -1.015625 L 1.15625 -9.5 C 1.15625 -9.832031 1.238281 -10.082031 1.40625 -10.25 C 1.582031 -10.425781 1.832031 -10.515625 2.15625 -10.515625 L 7.484375 -10.515625 C 7.734375 -10.515625 7.925781 -10.445312 8.0625 -10.3125 C 8.195312 -10.1875 8.265625 -10.007812 8.265625 -9.78125 C 8.265625 -9.53125 8.195312 -9.335938 8.0625 -9.203125 C 7.925781 -9.066406 7.734375 -9 7.484375 -9 L 2.984375 -9 L 2.984375 -6.109375 L 7.15625 -6.109375 C 7.414062 -6.109375 7.609375 -6.039062 7.734375 -5.90625 C 7.867188 -5.78125 7.9375 -5.59375 7.9375 -5.34375 C 7.9375 -5.09375 7.867188 -4.898438 7.734375 -4.765625 C 7.609375 -4.640625 7.414062 -4.578125 7.15625 -4.578125 L 2.984375 -4.578125 L 2.984375 -1.515625 L 7.484375 -1.515625 C 7.734375 -1.515625 7.925781 -1.453125 8.0625 -1.328125 C 8.195312 -1.203125 8.265625 -1.015625 8.265625 -0.765625 C 8.265625 -0.515625 8.195312 -0.320312 8.0625 -0.1875 C 7.925781 -0.0625 7.734375 0 7.484375 0 Z M 2.15625 0 "/></g></g></g><g fill="#6c8aa3" fill-opacity="1"><g transform="translate(116.14776, 78.276597)"><g><path d="M 2.046875 0.125 C 1.765625 0.125 1.546875 0.046875 1.390625 -0.109375 C 1.242188 -0.273438 1.171875 -0.5 1.171875 -0.78125 L 1.171875 -9.75 C 1.171875 -10.03125 1.25 -10.25 1.40625 -10.40625 C 1.570312 -10.5625 1.796875 -10.640625 2.078125 -10.640625 C 2.328125 -10.640625 2.519531 -10.59375 2.65625 -10.5 C 2.800781 -10.40625 2.9375 -10.242188 3.0625 -10.015625 L 6.75 -3.1875 L 6.265625 -3.1875 L 9.953125 -10.015625 C 10.066406 -10.242188 10.191406 -10.40625 10.328125 -10.5 C 10.472656 -10.59375 10.671875 -10.640625 10.921875 -10.640625 C 11.203125 -10.640625 11.414062 -10.5625 11.5625 -10.40625 C 11.707031 -10.25 11.78125 -10.03125 11.78125 -9.75 L 11.78125 -0.78125 C 11.78125 -0.5 11.707031 -0.273438 11.5625 -0.109375 C 11.425781 0.046875 11.210938 0.125 10.921875 0.125 C 10.640625 0.125 10.425781 0.046875 10.28125 -0.109375 C 10.132812 -0.273438 10.0625 -0.5 10.0625 -0.78125 L 10.0625 -7.6875 L 10.390625 -7.6875 L 7.25 -1.96875 C 7.15625 -1.800781 7.050781 -1.675781 6.9375 -1.59375 C 6.832031 -1.519531 6.679688 -1.484375 6.484375 -1.484375 C 6.296875 -1.484375 6.140625 -1.523438 6.015625 -1.609375 C 5.898438 -1.691406 5.800781 -1.8125 5.71875 -1.96875 L 2.546875 -7.703125 L 2.90625 -7.703125 L 2.90625 -0.78125 C 2.90625 -0.5 2.832031 -0.273438 2.6875 -0.109375 C 2.550781 0.046875 2.335938 0.125 2.046875 0.125 Z M 2.046875 0.125 "/></g></g></g><g fill="#6c8aa3" fill-opacity="1"><g transform="translate(129.094602, 78.276597)"><g><path d="M 4.609375 0.125 C 4.296875 0.125 4.054688 0.0351562 3.890625 -0.140625 C 3.734375 -0.316406 3.65625 -0.5625 3.65625 -0.875 L 3.65625 -5.421875 L 4.0625 -4.265625 L 0.46875 -9.328125 C 0.332031 -9.503906 0.269531 -9.691406 0.28125 -9.890625 C 0.300781 -10.097656 0.382812 -10.273438 0.53125 -10.421875 C 0.6875 -10.566406 0.894531 -10.640625 1.15625 -10.640625 C 1.363281 -10.640625 1.546875 -10.585938 1.703125 -10.484375 C 1.867188 -10.390625 2.023438 -10.238281 2.171875 -10.03125 L 4.84375 -6.234375 L 4.4375 -6.234375 L 7.125 -10.03125 C 7.28125 -10.25 7.429688 -10.40625 7.578125 -10.5 C 7.722656 -10.59375 7.90625 -10.640625 8.125 -10.640625 C 8.382812 -10.640625 8.585938 -10.570312 8.734375 -10.4375 C 8.878906 -10.300781 8.953125 -10.132812 8.953125 -9.9375 C 8.960938 -9.738281 8.894531 -9.53125 8.75 -9.3125 L 5.171875 -4.265625 L 5.5625 -5.421875 L 5.5625 -0.875 C 5.5625 -0.207031 5.242188 0.125 4.609375 0.125 Z M 4.609375 0.125 "/></g></g></g></svg>